<svg xmlns="http://www.w3.org/2000/svg" xmlns:xlink="http://www.w3.org/1999/xlink" width="800" zoomAndPan="magnify" viewBox="0 0 600 299.999988" height="400" preserveAspectRatio="xMidYMid meet" version="1.0"><defs><g/><clipPath id="593c9ee8e8"><path d="M 216.929688 17.414062 L 368.429688 17.414062 L 368.429688 234.164062 L 216.929688 234.164062 Z M 216.929688 17.414062 " clip-rule="nonzero"/></clipPath></defs><g clip-path="url(#593c9ee8e8)"><path fill="#000000" d="M 346.785156 17.589844 C 346.078125 17.589844 345.371094 17.625 344.664062 17.695312 C 343.957031 17.761719 343.257812 17.867188 342.5625 18.003906 C 341.867188 18.144531 341.179688 18.316406 340.503906 18.523438 C 339.824219 18.730469 339.160156 18.96875 338.503906 19.238281 C 337.847656 19.511719 337.207031 19.8125 336.582031 20.148438 C 335.957031 20.484375 335.351562 20.847656 334.761719 21.242188 C 334.171875 21.636719 333.605469 22.058594 333.054688 22.507812 C 332.507812 22.960938 331.984375 23.4375 331.480469 23.9375 C 330.980469 24.441406 330.503906 24.964844 330.054688 25.511719 C 329.605469 26.0625 329.183594 26.632812 328.789062 27.222656 C 328.398438 27.8125 328.03125 28.421875 327.699219 29.046875 C 327.363281 29.671875 327.0625 30.3125 326.789062 30.96875 C 326.519531 31.625 326.28125 32.292969 326.074219 32.972656 C 325.867188 33.652344 325.695312 34.339844 325.558594 35.035156 C 325.421875 35.730469 325.316406 36.433594 325.246094 37.140625 C 325.175781 37.847656 325.144531 38.554688 325.144531 39.265625 L 325.144531 50.101562 C 325.144531 50.8125 325.175781 51.519531 325.246094 52.226562 C 325.316406 52.933594 325.421875 53.632812 325.558594 54.328125 C 325.695312 55.027344 325.867188 55.714844 326.074219 56.394531 C 326.28125 57.074219 326.519531 57.738281 326.789062 58.394531 C 327.0625 59.050781 327.363281 59.691406 327.699219 60.320312 C 328.03125 60.945312 328.398438 61.554688 328.789062 62.144531 C 329.183594 62.734375 329.605469 63.304688 330.054688 63.851562 C 330.503906 64.402344 330.980469 64.925781 331.480469 65.429688 C 331.984375 65.929688 332.507812 66.40625 333.054688 66.855469 C 333.605469 67.304688 334.171875 67.730469 334.761719 68.125 C 335.351562 68.519531 335.957031 68.882812 336.582031 69.21875 C 337.207031 69.550781 337.847656 69.855469 338.503906 70.125 C 339.15625 70.398438 339.824219 70.636719 340.503906 70.84375 C 341.179688 71.050781 341.867188 71.222656 342.5625 71.359375 C 343.257812 71.5 343.957031 71.601562 344.664062 71.671875 C 345.371094 71.742188 346.078125 71.777344 346.785156 71.777344 C 347.496094 71.777344 348.203125 71.742188 348.90625 71.671875 C 349.613281 71.601562 350.3125 71.5 351.007812 71.359375 C 351.703125 71.222656 352.390625 71.050781 353.066406 70.84375 C 353.746094 70.636719 354.414062 70.398438 355.066406 70.125 C 355.722656 69.855469 356.363281 69.550781 356.988281 69.21875 C 357.613281 68.882812 358.21875 68.519531 358.808594 68.125 C 359.398438 67.730469 359.96875 67.304688 360.515625 66.855469 C 361.0625 66.40625 361.589844 65.929688 362.089844 65.429688 C 362.589844 64.925781 363.066406 64.402344 363.515625 63.851562 C 363.964844 63.304688 364.386719 62.734375 364.78125 62.144531 C 365.175781 61.554688 365.539062 60.945312 365.871094 60.320312 C 366.207031 59.691406 366.511719 59.050781 366.78125 58.394531 C 367.050781 57.738281 367.289062 57.074219 367.496094 56.394531 C 367.703125 55.714844 367.875 55.027344 368.011719 54.328125 C 368.152344 53.632812 368.253906 52.933594 368.324219 52.226562 C 368.394531 51.519531 368.429688 50.8125 368.429688 50.101562 L 368.429688 39.265625 C 368.429688 38.554688 368.394531 37.847656 368.324219 37.140625 C 368.253906 36.433594 368.152344 35.730469 368.011719 35.035156 C 367.875 34.339844 367.703125 33.652344 367.496094 32.972656 C 367.289062 32.292969 367.050781 31.625 366.78125 30.96875 C 366.511719 30.3125 366.207031 29.671875 365.871094 29.046875 C 365.539062 28.421875 365.175781 27.8125 364.78125 27.222656 C 364.386719 26.632812 363.964844 26.0625 363.515625 25.511719 C 363.066406 24.964844 362.589844 24.441406 362.089844 23.9375 C 361.589844 23.4375 361.0625 22.960938 360.515625 22.507812 C 359.96875 22.058594 359.398438 21.636719 358.808594 21.242188 C 358.21875 20.847656 357.613281 20.484375 356.988281 20.148438 C 356.363281 19.8125 355.722656 19.511719 355.066406 19.238281 C 354.414062 18.96875 353.746094 18.730469 353.066406 18.523438 C 352.390625 18.316406 351.703125 18.144531 351.007812 18.003906 C 350.3125 17.867188 349.613281 17.761719 348.90625 17.695312 C 348.203125 17.625 347.496094 17.589844 346.785156 17.589844 Z M 346.785156 93.449219 C 346.078125 93.449219 345.371094 93.484375 344.664062 93.554688 C 343.957031 93.625 343.257812 93.730469 342.5625 93.867188 C 341.867188 94.007812 341.179688 94.179688 340.503906 94.382812 C 339.824219 94.589844 339.160156 94.828125 338.503906 95.101562 C 337.847656 95.371094 337.207031 95.675781 336.582031 96.011719 C 335.957031 96.34375 335.351562 96.710938 334.761719 97.105469 C 334.171875 97.5 333.605469 97.921875 333.054688 98.371094 C 332.507812 98.820312 331.984375 99.296875 331.480469 99.800781 C 330.980469 100.300781 330.503906 100.828125 330.054688 101.375 C 329.605469 101.925781 329.183594 102.492188 328.789062 103.085938 C 328.398438 103.675781 328.03125 104.28125 327.699219 104.910156 C 327.363281 105.535156 327.0625 106.175781 326.789062 106.832031 C 326.519531 107.488281 326.28125 108.15625 326.074219 108.835938 C 325.867188 109.511719 325.695312 110.199219 325.558594 110.898438 C 325.421875 111.59375 325.316406 112.292969 325.246094 113 C 325.175781 113.707031 325.144531 114.414062 325.144531 115.125 L 325.144531 158.476562 C 325.144531 159.539062 325.089844 160.601562 324.988281 161.664062 C 324.882812 162.722656 324.726562 163.773438 324.519531 164.816406 C 324.3125 165.863281 324.054688 166.894531 323.746094 167.914062 C 323.4375 168.933594 323.078125 169.933594 322.671875 170.917969 C 322.265625 171.902344 321.8125 172.863281 321.308594 173.800781 C 320.808594 174.742188 320.261719 175.652344 319.671875 176.539062 C 319.082031 177.421875 318.449219 178.277344 317.773438 179.101562 C 317.097656 179.925781 316.386719 180.710938 315.632812 181.464844 C 314.882812 182.21875 314.09375 182.933594 313.273438 183.609375 C 312.453125 184.285156 311.597656 184.917969 310.714844 185.507812 C 309.832031 186.101562 308.917969 186.648438 307.980469 187.148438 C 307.042969 187.652344 306.085938 188.105469 305.101562 188.511719 C 304.121094 188.921875 303.121094 189.277344 302.101562 189.585938 C 301.085938 189.898438 300.054688 190.15625 299.011719 190.363281 C 297.96875 190.570312 296.917969 190.726562 295.859375 190.832031 C 294.800781 190.9375 293.742188 190.988281 292.679688 190.988281 C 291.617188 190.988281 290.554688 190.9375 289.496094 190.832031 C 288.4375 190.726562 287.386719 190.570312 286.34375 190.363281 C 285.300781 190.15625 284.273438 189.898438 283.253906 189.585938 C 282.238281 189.277344 281.238281 188.921875 280.253906 188.511719 C 279.273438 188.105469 278.3125 187.652344 277.375 187.148438 C 276.4375 186.648438 275.527344 186.101562 274.640625 185.507812 C 273.757812 184.917969 272.90625 184.285156 272.082031 183.609375 C 271.261719 182.933594 270.476562 182.21875 269.722656 181.464844 C 268.972656 180.710938 268.257812 179.925781 267.582031 179.101562 C 266.910156 178.277344 266.277344 177.421875 265.683594 176.539062 C 265.09375 175.652344 264.550781 174.742188 264.046875 173.800781 C 263.546875 172.863281 263.09375 171.902344 262.683594 170.917969 C 262.277344 169.933594 261.921875 168.933594 261.613281 167.914062 C 261.304688 166.894531 261.046875 165.863281 260.839844 164.816406 C 260.628906 163.773438 260.476562 162.722656 260.371094 161.664062 C 260.265625 160.601562 260.214844 159.539062 260.214844 158.476562 L 260.214844 39.265625 C 260.214844 38.554688 260.179688 37.847656 260.109375 37.140625 C 260.039062 36.433594 259.9375 35.730469 259.796875 35.035156 C 259.660156 34.339844 259.488281 33.652344 259.28125 32.972656 C 259.078125 32.292969 258.839844 31.625 258.566406 30.96875 C 258.296875 30.3125 257.992188 29.671875 257.660156 29.046875 C 257.324219 28.421875 256.960938 27.8125 256.566406 27.222656 C 256.171875 26.632812 255.75 26.0625 255.300781 25.511719 C 254.851562 24.964844 254.375 24.441406 253.875 23.9375 C 253.375 23.4375 252.847656 22.960938 252.300781 22.507812 C 251.753906 22.058594 251.183594 21.636719 250.59375 21.242188 C 250.007812 20.847656 249.398438 20.484375 248.773438 20.148438 C 248.148438 19.8125 247.507812 19.511719 246.855469 19.238281 C 246.199219 18.96875 245.53125 18.730469 244.855469 18.523438 C 244.175781 18.316406 243.488281 18.144531 242.792969 18.003906 C 242.097656 17.867188 241.398438 17.761719 240.691406 17.695312 C 239.988281 17.625 239.28125 17.589844 238.570312 17.589844 C 237.863281 17.589844 237.15625 17.625 236.449219 17.695312 C 235.746094 17.761719 235.042969 17.867188 234.347656 18.003906 C 233.652344 18.144531 232.96875 18.316406 232.289062 18.523438 C 231.609375 18.730469 230.945312 18.96875 230.289062 19.238281 C 229.632812 19.511719 228.996094 19.8125 228.367188 20.148438 C 227.742188 20.484375 227.136719 20.847656 226.546875 21.242188 C 225.957031 21.636719 225.390625 22.058594 224.839844 22.507812 C 224.292969 22.960938 223.769531 23.4375 223.269531 23.9375 C 222.765625 24.441406 222.289062 24.964844 221.839844 25.511719 C 221.390625 26.0625 220.96875 26.632812 220.574219 27.222656 C 220.183594 27.8125 219.816406 28.421875 219.484375 29.046875 C 219.148438 29.671875 218.847656 30.3125 218.574219 30.96875 C 218.304688 31.625 218.066406 32.292969 217.859375 32.972656 C 217.65625 33.652344 217.484375 34.339844 217.34375 35.035156 C 217.207031 35.730469 217.101562 36.433594 217.03125 37.140625 C 216.964844 37.847656 216.929688 38.554688 216.929688 39.265625 L 216.929688 158.476562 C 216.929688 158.660156 216.929688 158.847656 216.933594 159.035156 C 216.949219 160.265625 216.992188 161.496094 217.066406 162.726562 C 217.140625 163.957031 217.246094 165.183594 217.378906 166.410156 C 217.511719 167.632812 217.675781 168.855469 217.871094 170.074219 C 218.0625 171.289062 218.285156 172.5 218.539062 173.707031 C 218.792969 174.914062 219.074219 176.113281 219.382812 177.304688 C 219.695312 178.496094 220.035156 179.679688 220.402344 180.855469 C 220.769531 182.03125 221.167969 183.199219 221.59375 184.355469 C 222.019531 185.511719 222.472656 186.65625 222.953125 187.792969 C 223.433594 188.925781 223.941406 190.046875 224.476562 191.15625 C 225.011719 192.265625 225.574219 193.363281 226.164062 194.445312 C 226.75 195.527344 227.367188 196.59375 228.007812 197.644531 C 228.648438 198.699219 229.3125 199.734375 230.003906 200.753906 C 230.695312 201.773438 231.410156 202.773438 232.152344 203.757812 C 232.890625 204.742188 233.652344 205.710938 234.441406 206.65625 C 235.226562 207.605469 236.035156 208.53125 236.867188 209.441406 C 237.699219 210.347656 238.554688 211.234375 239.429688 212.101562 C 240.304688 212.96875 241.199219 213.8125 242.117188 214.632812 C 243.03125 215.457031 243.96875 216.257812 244.925781 217.035156 C 245.878906 217.808594 246.851562 218.5625 247.84375 219.292969 C 248.835938 220.023438 249.84375 220.726562 250.871094 221.40625 C 251.898438 222.085938 252.9375 222.742188 253.996094 223.371094 C 255.054688 224 256.128906 224.601562 257.214844 225.179688 C 258.300781 225.757812 259.402344 226.308594 260.515625 226.832031 C 261.632812 227.355469 262.757812 227.847656 263.894531 228.316406 C 265.035156 228.785156 266.183594 229.226562 267.34375 229.636719 C 268.5 230.050781 269.671875 230.433594 270.847656 230.789062 C 272.027344 231.144531 273.214844 231.46875 274.40625 231.769531 C 275.601562 232.066406 276.800781 232.332031 278.007812 232.570312 C 279.214844 232.808594 280.429688 233.019531 281.644531 233.199219 C 282.863281 233.378906 284.085938 233.527344 285.308594 233.648438 C 286.535156 233.769531 287.761719 233.859375 288.988281 233.917969 C 290.21875 233.976562 291.449219 234.007812 292.679688 234.007812 C 293.910156 234.007812 295.140625 233.976562 296.367188 233.917969 C 297.597656 233.859375 298.824219 233.769531 300.046875 233.648438 C 301.273438 233.527344 302.492188 233.378906 303.710938 233.199219 C 304.929688 233.019531 306.140625 232.808594 307.347656 232.570312 C 308.554688 232.332031 309.753906 232.066406 310.949219 231.769531 C 312.144531 231.46875 313.332031 231.144531 314.507812 230.789062 C 315.6875 230.433594 316.855469 230.050781 318.015625 229.636719 C 319.175781 229.226562 320.324219 228.785156 321.460938 228.316406 C 322.601562 227.847656 323.726562 227.355469 324.839844 226.832031 C 325.953125 226.308594 327.054688 225.757812 328.140625 225.179688 C 329.230469 224.601562 330.300781 224 331.359375 223.371094 C 332.417969 222.742188 333.460938 222.085938 334.484375 221.40625 C 335.511719 220.726562 336.519531 220.023438 337.511719 219.292969 C 338.503906 218.5625 339.476562 217.808594 340.433594 217.035156 C 341.386719 216.257812 342.324219 215.457031 343.242188 214.632812 C 344.15625 213.8125 345.050781 212.96875 345.925781 212.101562 C 346.800781 211.234375 347.65625 210.347656 348.488281 209.441406 C 349.320312 208.53125 350.128906 207.605469 350.917969 206.65625 C 351.703125 205.710938 352.464844 204.742188 353.207031 203.757812 C 353.945312 202.773438 354.660156 201.773438 355.351562 200.753906 C 356.042969 199.734375 356.710938 198.699219 357.351562 197.644531 C 357.992188 196.59375 358.605469 195.527344 359.195312 194.445312 C 359.785156 193.363281 360.34375 192.265625 360.878906 191.15625 C 361.417969 190.046875 361.925781 188.925781 362.40625 187.792969 C 362.886719 186.65625 363.339844 185.511719 363.765625 184.355469 C 364.1875 183.199219 364.585938 182.03125 364.953125 180.855469 C 365.324219 179.679688 365.664062 178.496094 365.972656 177.304688 C 366.285156 176.113281 366.566406 174.914062 366.816406 173.707031 C 367.070312 172.5 367.292969 171.289062 367.488281 170.074219 C 367.679688 168.855469 367.84375 167.632812 367.976562 166.410156 C 368.113281 165.183594 368.214844 163.957031 368.289062 162.726562 C 368.363281 161.496094 368.410156 160.265625 368.421875 159.035156 C 368.429688 158.847656 368.429688 158.660156 368.429688 158.476562 L 368.429688 115.125 C 368.429688 114.417969 368.394531 113.707031 368.324219 113 C 368.253906 112.296875 368.148438 111.59375 368.011719 110.898438 C 367.871094 110.203125 367.699219 109.515625 367.496094 108.835938 C 367.289062 108.15625 367.050781 107.488281 366.777344 106.832031 C 366.507812 106.175781 366.203125 105.535156 365.871094 104.910156 C 365.535156 104.285156 365.171875 103.675781 364.777344 103.085938 C 364.386719 102.496094 363.964844 101.925781 363.511719 101.378906 C 363.0625 100.828125 362.589844 100.304688 362.085938 99.800781 C 361.585938 99.300781 361.0625 98.824219 360.515625 98.375 C 359.964844 97.921875 359.398438 97.5 358.808594 97.105469 C 358.21875 96.710938 357.613281 96.347656 356.988281 96.011719 C 356.363281 95.679688 355.722656 95.375 355.066406 95.101562 C 354.410156 94.832031 353.746094 94.59375 353.066406 94.386719 C 352.390625 94.179688 351.703125 94.007812 351.007812 93.867188 C 350.3125 93.730469 349.613281 93.625 348.90625 93.554688 C 348.203125 93.488281 347.496094 93.453125 346.785156 93.449219 Z M 346.785156 93.449219 " fill-opacity="1" fill-rule="nonzero"/></g><g fill="#000000" fill-opacity="1"><g transform="translate(229.994979, 264.477972)"><g><path d="M 17.609375 -8.09375 C 17.609375 -5.238281 16.9375 -3.140625 15.59375 -1.796875 C 14.257812 -0.460938 12.375 0.203125 9.9375 0.203125 C 7.507812 0.203125 5.617188 -0.460938 4.265625 -1.796875 C 2.921875 -3.140625 2.25 -5.238281 2.25 -8.09375 L 2.25 -21.71875 C 2.25 -21.875 2.300781 -22.007812 2.40625 -22.125 C 2.519531 -22.238281 2.65625 -22.296875 2.8125 -22.296875 L 4.4375 -22.296875 C 4.601562 -22.296875 4.738281 -22.238281 4.84375 -22.125 C 4.957031 -22.007812 5.015625 -21.875 5.015625 -21.71875 L 5.015625 -8.09375 C 5.015625 -6.15625 5.367188 -4.675781 6.078125 -3.65625 C 6.785156 -2.632812 8.070312 -2.125 9.9375 -2.125 C 11.789062 -2.125 13.070312 -2.632812 13.78125 -3.65625 C 14.488281 -4.675781 14.84375 -6.15625 14.84375 -8.09375 L 14.84375 -21.71875 C 14.84375 -21.875 14.898438 -22.007812 15.015625 -22.125 C 15.128906 -22.238281 15.265625 -22.296875 15.421875 -22.296875 L 17.046875 -22.296875 C 17.203125 -22.296875 17.332031 -22.238281 17.4375 -22.125 C 17.550781 -22.007812 17.609375 -21.875 17.609375 -21.71875 Z M 17.609375 -8.09375 "/></g></g></g><g fill="#000000" fill-opacity="1"><g transform="translate(249.84726, 264.477972)"><g><path d="M 14.734375 -7.140625 C 14.734375 -4.773438 14.191406 -2.957031 13.109375 -1.6875 C 12.023438 -0.425781 10.382812 0.203125 8.1875 0.203125 C 7.726562 0.203125 7.171875 0.171875 6.515625 0.109375 C 5.867188 0.0546875 5.257812 -0.0195312 4.6875 -0.125 L 4.6875 5.3125 C 4.6875 5.445312 4.628906 5.570312 4.515625 5.6875 C 4.398438 5.8125 4.265625 5.875 4.109375 5.875 L 2.578125 5.875 C 2.222656 5.875 2.046875 5.6875 2.046875 5.3125 L 2.046875 -15.328125 C 2.046875 -15.523438 2.082031 -15.675781 2.15625 -15.78125 C 2.238281 -15.882812 2.410156 -15.960938 2.671875 -16.015625 C 3.472656 -16.210938 4.363281 -16.375 5.34375 -16.5 C 6.320312 -16.632812 7.269531 -16.703125 8.1875 -16.703125 C 10.425781 -16.703125 12.078125 -16.03125 13.140625 -14.6875 C 14.203125 -13.351562 14.734375 -11.554688 14.734375 -9.296875 Z M 12.09375 -7.140625 L 12.09375 -9.296875 C 12.09375 -10.878906 11.8125 -12.140625 11.25 -13.078125 C 10.6875 -14.015625 9.664062 -14.484375 8.1875 -14.484375 C 7.570312 -14.484375 6.9375 -14.453125 6.28125 -14.390625 C 5.632812 -14.335938 5.101562 -14.269531 4.6875 -14.1875 L 4.6875 -2.3125 C 5.1875 -2.226562 5.773438 -2.15625 6.453125 -2.09375 C 7.128906 -2.039062 7.707031 -2.015625 8.1875 -2.015625 C 9.664062 -2.015625 10.6875 -2.46875 11.25 -3.375 C 11.8125 -4.28125 12.09375 -5.535156 12.09375 -7.140625 Z M 12.09375 -7.140625 "/></g></g></g><g fill="#000000" fill-opacity="1"><g transform="translate(266.070953, 264.477972)"><g><path d="M 13.53125 -0.59375 C 13.53125 -0.4375 13.46875 -0.296875 13.34375 -0.171875 C 13.226562 -0.0546875 13.09375 0 12.9375 0 L 11.546875 0 C 11.390625 0 11.25 -0.0546875 11.125 -0.171875 C 11.007812 -0.296875 10.953125 -0.4375 10.953125 -0.59375 L 10.953125 -1.265625 C 10.234375 -0.835938 9.492188 -0.484375 8.734375 -0.203125 C 7.972656 0.0664062 7.171875 0.203125 6.328125 0.203125 C 5.484375 0.203125 4.6875 0.0625 3.9375 -0.21875 C 3.1875 -0.507812 2.582031 -1.007812 2.125 -1.71875 C 1.664062 -2.4375 1.4375 -3.414062 1.4375 -4.65625 L 1.4375 -5.015625 C 1.4375 -6.628906 1.976562 -7.84375 3.0625 -8.65625 C 4.144531 -9.46875 6.015625 -9.875 8.671875 -9.875 L 10.890625 -9.875 L 10.890625 -11.0625 C 10.890625 -12.320312 10.648438 -13.203125 10.171875 -13.703125 C 9.691406 -14.203125 8.863281 -14.453125 7.6875 -14.453125 C 6.695312 -14.453125 5.832031 -14.425781 5.09375 -14.375 C 4.351562 -14.332031 3.6875 -14.28125 3.09375 -14.21875 C 3.070312 -14.21875 3.050781 -14.21875 3.03125 -14.21875 C 3.007812 -14.21875 2.976562 -14.21875 2.9375 -14.21875 C 2.800781 -14.21875 2.675781 -14.25 2.5625 -14.3125 C 2.457031 -14.375 2.40625 -14.503906 2.40625 -14.703125 L 2.40625 -15.75 C 2.40625 -16.070312 2.613281 -16.257812 3.03125 -16.3125 C 3.644531 -16.414062 4.316406 -16.503906 5.046875 -16.578125 C 5.785156 -16.660156 6.664062 -16.703125 7.6875 -16.703125 C 9.757812 -16.703125 11.25 -16.207031 12.15625 -15.21875 C 13.070312 -14.226562 13.53125 -12.84375 13.53125 -11.0625 Z M 10.890625 -3.15625 L 10.890625 -7.984375 L 8.671875 -7.984375 C 7.472656 -7.984375 6.535156 -7.882812 5.859375 -7.6875 C 5.191406 -7.5 4.726562 -7.191406 4.46875 -6.765625 C 4.207031 -6.335938 4.078125 -5.765625 4.078125 -5.046875 L 4.078125 -4.6875 C 4.078125 -3.601562 4.320312 -2.875 4.8125 -2.5 C 5.300781 -2.132812 5.976562 -1.953125 6.84375 -1.953125 C 7.539062 -1.953125 8.207031 -2.054688 8.84375 -2.265625 C 9.488281 -2.472656 10.171875 -2.769531 10.890625 -3.15625 Z M 10.890625 -3.15625 "/></g></g></g><g fill="#000000" fill-opacity="1"><g transform="translate(281.634905, 264.477972)"><g><path d="M 9.453125 -14.9375 C 9.453125 -14.601562 9.238281 -14.4375 8.8125 -14.4375 C 8.132812 -14.4375 7.460938 -14.335938 6.796875 -14.140625 C 6.140625 -13.953125 5.4375 -13.628906 4.6875 -13.171875 L 4.6875 -0.59375 C 4.6875 -0.457031 4.625 -0.320312 4.5 -0.1875 C 4.375 -0.0625 4.234375 0 4.078125 0 L 2.609375 0 C 2.472656 0 2.34375 -0.0546875 2.21875 -0.171875 C 2.101562 -0.296875 2.046875 -0.4375 2.046875 -0.59375 L 2.046875 -15.90625 C 2.046875 -16.0625 2.097656 -16.195312 2.203125 -16.3125 C 2.316406 -16.4375 2.453125 -16.5 2.609375 -16.5 L 4.015625 -16.5 C 4.179688 -16.5 4.316406 -16.4375 4.421875 -16.3125 C 4.535156 -16.195312 4.59375 -16.0625 4.59375 -15.90625 L 4.59375 -15.265625 C 5.351562 -15.785156 6.078125 -16.15625 6.765625 -16.375 C 7.453125 -16.59375 8.132812 -16.703125 8.8125 -16.703125 C 9.238281 -16.703125 9.453125 -16.523438 9.453125 -16.171875 Z M 9.453125 -14.9375 "/></g></g></g><g fill="#000000" fill-opacity="1"><g transform="translate(291.890916, 264.477972)"><g><path d="M 12.953125 -0.59375 C 12.953125 -0.4375 12.890625 -0.296875 12.765625 -0.171875 C 12.648438 -0.0546875 12.515625 0 12.359375 0 L 3.296875 0 C 2.660156 0 2.195312 -0.164062 1.90625 -0.5 C 1.613281 -0.84375 1.46875 -1.226562 1.46875 -1.65625 L 1.46875 -2.21875 C 1.46875 -2.632812 1.515625 -2.984375 1.609375 -3.265625 C 1.710938 -3.546875 1.894531 -3.847656 2.15625 -4.171875 L 9.90625 -13.796875 C 9.976562 -13.921875 10.015625 -14.007812 10.015625 -14.0625 C 10.015625 -14.207031 9.914062 -14.28125 9.71875 -14.28125 L 2.4375 -14.28125 C 2.269531 -14.28125 2.125 -14.335938 2 -14.453125 C 1.882812 -14.578125 1.828125 -14.71875 1.828125 -14.875 L 1.828125 -15.90625 C 1.828125 -16.0625 1.882812 -16.195312 2 -16.3125 C 2.125 -16.4375 2.269531 -16.5 2.4375 -16.5 L 11.25 -16.5 C 11.875 -16.5 12.3125 -16.367188 12.5625 -16.109375 C 12.8125 -15.847656 12.9375 -15.488281 12.9375 -15.03125 L 12.9375 -14.3125 C 12.9375 -13.75 12.703125 -13.195312 12.234375 -12.65625 L 4.34375 -2.796875 C 4.25 -2.691406 4.203125 -2.578125 4.203125 -2.453125 C 4.203125 -2.296875 4.28125 -2.21875 4.4375 -2.21875 L 12.359375 -2.21875 C 12.515625 -2.21875 12.648438 -2.15625 12.765625 -2.03125 C 12.890625 -1.914062 12.953125 -1.78125 12.953125 -1.625 Z M 12.953125 -0.59375 "/></g></g></g><g fill="#000000" fill-opacity="1"><g transform="translate(306.345295, 264.477972)"><g><path d="M 14.84375 -7.109375 C 14.84375 -4.910156 14.273438 -3.140625 13.140625 -1.796875 C 12.015625 -0.460938 10.351562 0.203125 8.15625 0.203125 C 5.957031 0.203125 4.296875 -0.460938 3.171875 -1.796875 C 2.054688 -3.140625 1.5 -4.910156 1.5 -7.109375 L 1.5 -9.390625 C 1.5 -11.585938 2.054688 -13.351562 3.171875 -14.6875 C 4.296875 -16.03125 5.957031 -16.703125 8.15625 -16.703125 C 10.351562 -16.703125 12.015625 -16.03125 13.140625 -14.6875 C 14.273438 -13.351562 14.84375 -11.585938 14.84375 -9.390625 Z M 12.203125 -7.109375 L 12.203125 -9.390625 C 12.203125 -10.929688 11.882812 -12.148438 11.25 -13.046875 C 10.613281 -13.953125 9.582031 -14.40625 8.15625 -14.40625 C 6.757812 -14.40625 5.738281 -13.953125 5.09375 -13.046875 C 4.457031 -12.148438 4.140625 -10.929688 4.140625 -9.390625 L 4.140625 -7.109375 C 4.140625 -5.585938 4.457031 -4.367188 5.09375 -3.453125 C 5.738281 -2.546875 6.757812 -2.09375 8.15625 -2.09375 C 9.5625 -2.09375 10.585938 -2.539062 11.234375 -3.4375 C 11.878906 -4.34375 12.203125 -5.566406 12.203125 -7.109375 Z M 12.203125 -7.109375 "/></g></g></g><g fill="#000000" fill-opacity="1"><g transform="translate(322.688945, 264.477972)"><g><path d="M 14.671875 -0.59375 C 14.671875 -0.4375 14.609375 -0.296875 14.484375 -0.171875 C 14.367188 -0.0546875 14.226562 0 14.0625 0 L 12.625 0 C 12.46875 0 12.328125 -0.0546875 12.203125 -0.171875 C 12.085938 -0.296875 12.03125 -0.4375 12.03125 -0.59375 L 12.03125 -10.46875 C 12.03125 -11.988281 11.765625 -13.03125 11.234375 -13.59375 C 10.703125 -14.15625 9.867188 -14.4375 8.734375 -14.4375 C 8.109375 -14.4375 7.453125 -14.320312 6.765625 -14.09375 C 6.078125 -13.875 5.382812 -13.597656 4.6875 -13.265625 L 4.6875 -0.59375 C 4.6875 -0.457031 4.625 -0.320312 4.5 -0.1875 C 4.375 -0.0625 4.234375 0 4.078125 0 L 2.609375 0 C 2.472656 0 2.34375 -0.0546875 2.21875 -0.171875 C 2.101562 -0.296875 2.046875 -0.4375 2.046875 -0.59375 L 2.046875 -15.90625 C 2.046875 -16.0625 2.097656 -16.195312 2.203125 -16.3125 C 2.316406 -16.4375 2.453125 -16.5 2.609375 -16.5 L 4.109375 -16.5 C 4.265625 -16.5 4.398438 -16.4375 4.515625 -16.3125 C 4.628906 -16.195312 4.6875 -16.0625 4.6875 -15.90625 L 4.6875 -15.328125 C 5.5 -15.785156 6.273438 -16.128906 7.015625 -16.359375 C 7.753906 -16.585938 8.566406 -16.703125 9.453125 -16.703125 C 11.253906 -16.703125 12.570312 -16.160156 13.40625 -15.078125 C 14.25 -14.003906 14.671875 -12.46875 14.671875 -10.46875 Z M 14.671875 -0.59375 "/></g></g></g><g fill="#000000" fill-opacity="1"><g transform="translate(339.392453, 264.477972)"><g><path d="M 14.765625 -8.0625 C 14.765625 -7.625 14.570312 -7.40625 14.1875 -7.40625 L 4.140625 -7.40625 L 4.140625 -6.984375 C 4.140625 -5.203125 4.488281 -3.941406 5.1875 -3.203125 C 5.882812 -2.460938 6.925781 -2.09375 8.3125 -2.09375 C 9.1875 -2.09375 10.125 -2.125 11.125 -2.1875 C 12.125 -2.25 12.96875 -2.332031 13.65625 -2.4375 C 13.6875 -2.4375 13.710938 -2.4375 13.734375 -2.4375 C 13.753906 -2.4375 13.773438 -2.4375 13.796875 -2.4375 C 13.921875 -2.4375 14.03125 -2.40625 14.125 -2.34375 C 14.226562 -2.28125 14.28125 -2.171875 14.28125 -2.015625 L 14.28125 -0.984375 C 14.28125 -0.785156 14.238281 -0.628906 14.15625 -0.515625 C 14.082031 -0.410156 13.925781 -0.335938 13.6875 -0.296875 C 12.820312 -0.140625 11.957031 -0.0195312 11.09375 0.0625 C 10.238281 0.15625 9.3125 0.203125 8.3125 0.203125 C 7.445312 0.203125 6.609375 0.0859375 5.796875 -0.140625 C 4.992188 -0.367188 4.265625 -0.75 3.609375 -1.28125 C 2.960938 -1.820312 2.445312 -2.554688 2.0625 -3.484375 C 1.6875 -4.421875 1.5 -5.585938 1.5 -6.984375 L 1.5 -9.6875 C 1.5 -11.832031 2.070312 -13.535156 3.21875 -14.796875 C 4.375 -16.066406 6.019531 -16.703125 8.15625 -16.703125 C 10.351562 -16.703125 12.003906 -16.066406 13.109375 -14.796875 C 14.210938 -13.535156 14.765625 -11.832031 14.765625 -9.6875 Z M 12.09375 -9.421875 L 12.09375 -9.6875 C 12.09375 -11.382812 11.765625 -12.59375 11.109375 -13.3125 C 10.460938 -14.039062 9.476562 -14.40625 8.15625 -14.40625 C 6.875 -14.40625 5.882812 -14.023438 5.1875 -13.265625 C 4.488281 -12.503906 4.140625 -11.3125 4.140625 -9.6875 L 4.140625 -9.421875 Z M 12.09375 -9.421875 "/></g></g></g></svg>